<?xml version="1.0" encoding="UTF-8"?>
<svg version="1.1" xmlns="http://www.w3.org/2000/svg" width="600" height="600">
<path d="M0 0 C198 0 396 0 600 0 C600 198 600 396 600 600 C402 600 204 600 0 600 C0 402 0 204 0 0 Z " fill="#002868" transform="translate(0,0)"/>
<path d="M0 0 C198 0 396 0 600 0 C600 49.5 600 99 600 150 C402 150 204 150 0 150 C0 100.5 0 51 0 0 Z " fill="#CE1126" transform="translate(0,450)"/>
<path d="M0 0 C198 0 396 0 600 0 C600 49.5 600 99 600 150 C402 150 204 150 0 150 C0 100.5 0 51 0 0 Z " fill="#CD1126" transform="translate(0,0)"/>
<path d="M0 0 C15.17508419 11.78740551 28.45931612 26.76326488 35.43823242 44.90844727 C36.05698242 46.00157227 36.67573242 47.09469727 37.31323242 48.22094727 C40.60601432 54.64618836 41.82744161 61.92079133 43.43823242 68.90844727 C43.62901367 69.60969727 43.81979492 70.31094727 44.01635742 71.03344727 C46.25562066 80.98572833 45.64792729 91.76055407 45.43823242 101.90844727 C45.42566406 102.70718262 45.4130957 103.50591797 45.40014648 104.32885742 C45.35226594 106.83574588 45.27440304 109.34010567 45.18823242 111.84594727 C45.17421387 112.61438965 45.16019531 113.38283203 45.14575195 114.17456055 C44.92567611 119.24506407 43.74489287 123.00422923 41.53881836 127.55859375 C39.5832087 131.73400258 38.17833347 136.11256158 36.68823242 140.47094727 C36.37241211 141.38424805 36.0565918 142.29754883 35.73120117 143.23852539 C34.9633487 145.4606439 34.19909218 147.68392686 33.43823242 149.90844727 C32.77823242 149.90844727 32.11823242 149.90844727 31.43823242 149.90844727 C31.18944336 150.77211914 30.9406543 151.63579102 30.68432617 152.52563477 C26.62623075 163.54228252 17.45374739 172.58558894 9.43823242 180.90844727 C8.84526367 181.56458008 8.25229492 182.22071289 7.64135742 182.89672852 C-10.66189985 202.60444365 -41.10704538 214.18524914 -67.49145508 215.22094727 C-99.55384265 215.84874594 -129.41209932 207.20094902 -153.30786133 185.08422852 C-163.20799982 175.52724907 -172.1145047 166.13663579 -178.56176758 153.90844727 C-178.56176758 153.24844727 -178.56176758 152.58844727 -178.56176758 151.90844727 C-179.22176758 151.90844727 -179.88176758 151.90844727 -180.56176758 151.90844727 C-189.45233618 132.74271332 -189.45233618 132.74271332 -191.16723633 123.62329102 C-191.40723867 121.88612177 -191.40723867 121.88612177 -192.56176758 120.90844727 C-198.92879406 90.74640212 -193.86411932 58.31004073 -177.45239258 32.1394043 C-166.00742172 14.66198005 -151.43610834 0.6659619 -133.56176758 -10.09155273 C-132.98934326 -10.43694092 -132.41691895 -10.7823291 -131.82714844 -11.13818359 C-90.45816507 -35.5255081 -37.22495159 -28.12212199 0 0 Z " fill="#FDFEFE" transform="translate(369.561767578125,205.091552734375)"/>
</svg>
